<svg class="logo-header" xmlns="http://www.w3.org/2000/svg" viewBox="0 0 79.375 30.427084" style="pointer-events: auto;">
  <g transform="translate(-65.512108,-133.28645)">
    <path d="m 89.742386,162.05989 c -1.596339,-2.66503 0.312296,-8.23029 -4.40682,-8.02996 -5.172819,-1.68953 -7.275584,-9.61957 -2.646512,-13.05202 2.742521,-2.42199 7.266739,-4.50201 10.513687,-1.79721 4.096091,3.19508 4.269821,10.24512 0.03075,13.40742 -3.238218,2.08127 -0.09124,5.38983 0.05378,8.12236 0.120915,1.57051 -2.649704,2.61481 -3.544885,1.34941 z M 87.732747,150.7571 c -0.524207,-1.85542 0.17929,-6.15844 2.803462,-3.80747 -0.373907,1.88128 0.683796,3.18603 1.528646,0.87271 1.970394,-3.01768 -1.366941,-8.55505 -4.619212,-5.12819 -2.95779,1.83231 -4.245477,6.84059 -0.426484,8.48804 l 0.388125,-0.0515 z m 23.648603,6.56156 c -2.08077,-0.83261 -0.54547,-6.40225 -1.53178,-5.62138 0.42375,1.64916 -0.90993,4.42991 -2.12669,1.67133 -1.80861,-1.90684 -5.91152,-4.32708 -8.020744,-2.84416 -0.600331,1.71603 -0.908762,7.77288 -3.599039,4.51112 -1.084931,-3.29991 0.844435,-6.69539 1.513852,-9.91393 1.047744,-2.62346 1.837643,-7.91589 5.542651,-7.29765 2.25915,3.0326 3.92134,6.54764 5.68378,9.91485 0.60869,1.10104 1.53962,3.65149 1.31355,0.9227 0.49668,-3.28302 -0.006,-6.61454 0.55384,-9.7719 1.0856,-3.34896 4.37848,-1.32765 4.92177,1.14845 1.49776,3.41163 4.83048,1.52943 4.99438,-1.43461 1.89752,-3.01745 4.54555,0.322 4.55724,2.68189 0.54244,3.15315 0.20446,6.56056 1.92604,9.4077 1.05383,1.72253 -0.32788,6.05492 -2.18526,2.84086 -1.33578,-1.90365 -0.63145,-6.8804 -2.89557,-6.98889 -1.48585,3.07911 -4.93223,2.79586 -6.26093,-0.14783 -3.62924,-1.65626 -1.4848,4.22894 -1.77418,6.15339 -0.0371,1.56772 0.14874,6.109 -2.61291,4.76806 z m -7.34406,-11.75072 c 0.27205,-3.48398 -4.155586,0.26781 -0.82997,0.45445 0.24923,0.0892 0.92492,-0.0245 0.82997,-0.45445 z M 70.874674,155.6628 c -3.448917,-3.46498 -2.972581,-8.73777 -3.630408,-13.20909 -1.449956,-3.738 1.151058,-7.2932 5.086296,-7.41149 3.343052,-0.90461 8.130653,0.57265 7.747329,4.76302 0.581854,3.27977 -4.040165,5.32498 -0.970015,8.24905 1.758274,3.22161 0.136579,7.64595 -3.749803,8.02182 -1.472242,0.36486 -3.153882,0.42865 -4.483399,-0.41331 z m 5.174454,-7.12006 c 0.418531,-3.37743 -4.858634,-0.44813 -1.634416,0.85356 0.586916,-0.005 1.733557,0.0385 1.634416,-0.85356 z m 0.310897,-5.20212 c 2.014036,-3.92851 -7.004716,0.24549 -1.912145,0.52418 0.662084,0.007 1.413455,-0.0212 1.912145,-0.52418 z m 58.674595,11.09312 c -2.59355,-2.84068 -1.17053,-6.97142 -1.76672,-10.41461 -0.0987,-2.86243 -2.12382,-8.58307 2.59466,-8.33323 2.31888,0.87515 8.59982,-0.0918 7.28008,3.84875 -1.14486,2.70823 -6.49355,-1.52987 -5.96755,2.23549 2.94706,-0.2854 3.79457,4.11724 0.55811,4.54632 -2.0779,4.23729 5.93857,0.13786 5.2786,4.05367 -1.28652,2.36233 -5.40038,4.36965 -7.97718,4.06361 z m -7.22516,-7.24464 c -2.87809,-2.8513 3.52111,-6.156 4.06993,-1.92344 0.2182,2.01669 -2.65799,3.57726 -4.06993,1.92344 z" />
  </g>
</svg>
