<?xml version="1.0" encoding="UTF-8" standalone="no"?>
<!-- Generator: Adobe Illustrator 27.5.0, SVG Export Plug-In . SVG Version: 6.00 Build 0)  -->

<svg
   version="1.1"
   id="Capa_1"
   x="0px"
   y="0px"
   viewBox="0 0 125.19598 406.12825"
   xml:space="preserve"
   sodipodi:docname="hanging_light.svg"
   width="125.196"
   height="406.12799"
   inkscape:version="1.4 (1:1.4+202410161351+e7c3feb100)"
   xmlns:inkscape="http://www.inkscape.org/namespaces/inkscape"
   xmlns:sodipodi="http://sodipodi.sourceforge.net/DTD/sodipodi-0.dtd"
   xmlns="http://www.w3.org/2000/svg"
   xmlns:svg="http://www.w3.org/2000/svg"><defs
   id="defs70" /><sodipodi:namedview
   id="namedview70"
   pagecolor="#ffffff"
   bordercolor="#000000"
   borderopacity="0.25"
   inkscape:showpageshadow="2"
   inkscape:pageopacity="0.0"
   inkscape:pagecheckerboard="0"
   inkscape:deskcolor="#d1d1d1"
   inkscape:document-units="px"
   inkscape:zoom="1.9560748"
   inkscape:cx="28.628762"
   inkscape:cy="234.39799"
   inkscape:window-width="1920"
   inkscape:window-height="1011"
   inkscape:window-x="0"
   inkscape:window-y="32"
   inkscape:window-maximized="1"
   inkscape:current-layer="g50" />
<g
   id="g70">
	<rect
   x="-3.5785952"
   y="-0.001"
   style="fill:#ffffff;stroke-width:0.548073;fill-opacity:0"
   width="128.68387"
   height="407.44864"
   id="rect1" />
	
	
	<g
   id="g52"
   transform="matrix(1,0,0,1.0597136,-193.80029,1.5347434)">
		<g
   id="g51">
			<g
   id="g41">
				
				
				
				
				
				
				
			</g>
			<g
   id="g50">
				<polygon
   style="fill:#575756"
   points="240.446,265.375 269.963,263.375 268.454,248.684 241.779,250.705 "
   id="polygon41" />
				<path
   style="fill:#373636"
   d="m 239.064,263.188 c -0.047,-0.697 0.479,-1.299 1.176,-1.348 l 29.652,-2.006 c 0.697,-0.049 1.301,0.478 1.348,1.174 v 0 c 0.047,0.697 -0.48,1.301 -1.177,1.348 l -29.65,2.008 c -0.698,0.048 -1.302,-0.479 -1.349,-1.176 z"
   id="path42" />
				<path
   d="m 255.18699,363.328 c 23.249,0 42.098,-18.848 42.098,-42.098 0,-16.162 -9.114,-30.19 -22.478,-37.244 -2.324,-4.205 -5.028,-11.172 -4.844,-20.611 l -29.517,2 c -0.015,0 -0.028,-0.002 -0.042,-0.002 -0.199,8.428 -2.682,14.711 -4.837,18.613 -13.364,7.055 -22.476,21.082 -22.476,37.244 -0.001,23.25 18.847,42.098 42.096,42.098 z"
   id="path43"
   sodipodi:nodetypes="ssccccccs" />
				<path
   style="fill:#373636"
   d="m 239.064,260.043 c -0.047,-0.697 0.479,-1.301 1.176,-1.348 l 29.652,-2.008 c 0.697,-0.049 1.301,0.478 1.348,1.176 v 0 c 0.047,0.695 -0.48,1.299 -1.177,1.346 l -29.65,2.01 c -0.698,0.047 -1.302,-0.481 -1.349,-1.176 z"
   id="path44" />
				<path
   style="fill:#373636"
   d="m 239.064,256.756 c -0.047,-0.697 0.479,-1.301 1.176,-1.348 l 29.652,-2.008 c 0.697,-0.049 1.301,0.479 1.348,1.176 v 0 c 0.047,0.695 -0.48,1.299 -1.177,1.346 l -29.65,2.01 c -0.698,0.046 -1.302,-0.481 -1.349,-1.176 z"
   id="path45" />
				<path
   style="fill:#373636"
   d="m 239.064,253.469 c -0.047,-0.697 0.479,-1.301 1.176,-1.348 l 29.652,-2.008 c 0.697,-0.049 1.301,0.479 1.348,1.176 v 0 c 0.047,0.695 -0.48,1.299 -1.177,1.346 l -29.65,2.01 c -0.698,0.046 -1.302,-0.481 -1.349,-1.176 z"
   id="path46" />
				<path
   style="fill:#373636"
   d="m 241.779,250.705 26.674,-2.021 -4.803,-7.586 h -1.587 c -0.806,-2.564 -3.2,-4.424 -6.031,-4.424 -2.828,0 -5.223,1.859 -6.029,4.424 h -1.775 z"
   id="path47" />
				
				<path
   style="fill:none;stroke:#ffffff;stroke-width:0.8825;stroke-miterlimit:10"
   d="m 262.638,264.172 4.265,39.174 c 0.357,3.06 0.919,12.518 5.553,12.57 4.353,0.049 4.605,-6.066 0.5,-7.281 -1.604,-0.475 -4.065,1.041 -5.133,0.656 -1.986,-0.715 -4.599,1.416 -5.217,3.494 -0.814,2.742 1.79,4.285 2.509,1.072 1.289,-5.768 -8.595,-4.982 -7.338,-0.131 0.23,0.893 1.218,2.148 2.09,1.572 1.299,-0.861 0.866,-3.545 -0.018,-4.469 -1.153,-1.205 -3.274,-1.295 -4.678,-0.494 -1.408,0.801 -2.888,3.531 -1.032,4.709 2.05,1.301 3.336,-4.568 -0.532,-5.004 -1.732,-0.195 -6.458,1.266 -4.646,3.867 1.824,2.615 2.686,-1.18 1.559,-2.637 -1.009,-1.307 -3.469,-1.729 -4.981,-1.182 -1.487,0.539 -2.56,2.395 -1.925,3.932 0.503,1.213 2.074,1.498 2.906,0.502 1.088,-1.301 -0.115,-3.424 -1.249,-4.291 -0.686,-0.525 -1.634,-0.969 -2.502,-1.057 -2.11,-0.215 -4.061,-0.537 -6.018,0.627 -4.857,2.895 -1.52,8.52 2.674,4.826 5.358,-4.719 4.649,-15.328 5.607,-21.801 l 2.477,-28.119"
   id="path49" />
				
			</g>
		</g>
		<rect
   x="253.82001"
   y="-0.001"
   style="fill:#373636"
   width="2.7690001"
   height="242.131"
   id="rect51" />
	</g>
	
</g>
</svg>
